<?xml version="1.0" encoding="utf-8"?>
<!-- Generator: Adobe Illustrator 26.5.0, SVG Export Plug-In . SVG Version: 6.00 Build 0)  -->
<svg version="1.1" id="Laag_1" xmlns="http://www.w3.org/2000/svg" xmlns:xlink="http://www.w3.org/1999/xlink" x="0px" y="0px"
	 viewBox="0 0 84.2 83.1" style="enable-background:new 0 0 84.2 83.1;" xml:space="preserve">
<style type="text/css">
	.st0{fill:#001254;}
</style>
<path class="st0" d="M84.2,26.9c0-1.9-0.5-3.3-1.9-4.6C75.5,15.6,68.6,8.8,61.9,2c-1.4-1.5-2.9-2-4.9-2c-9.8,0.1-19.5,0.1-29.2,0
	c-2.1,0-3.5,0.7-4.9,2.1c-6.7,6.7-13.4,13.4-20.2,20c-1.5,1.5-2.3,3-2.2,5.2c0.1,4.7,0,9.4,0.1,14.2c0.1,5.7-1.3,12,0.7,16.9
	c2,4.8,7.4,8.2,11.4,12.1c4.1,4,7.5,9.6,12.5,11.6c5.1,2,11.5,0.4,17.4,0.4c0,0.1,0,0.2,0,0.3c4.9,0,9.8-0.1,14.6,0
	c2,0.1,3.5-0.6,4.9-2.1c6.7-6.7,13.4-13.4,20.2-20c1.4-1.4,2.1-2.8,2.1-4.9C84.1,46.3,84.1,36.6,84.2,26.9L84.2,26.9z M61.5,60.7
	c-5.5,5.4-10.8,7.6-18.5,7.7c-8.4,0.1-14.3-2.2-20.2-8.3c-5.2-5.3-7.2-10.4-7.5-17.8C15,33.6,17.4,27.4,24,21.7
	c7.6-6.5,7.2-6.9,19.8-6.9c6.9-2.2,12.2,2.3,18,7.8c5.8,5.4,7.8,11,7.8,18.8C69.7,49.4,67.2,55,61.5,60.7L61.5,60.7z"/>
<path class="st0" d="M43.4,28.5c-8.9,0-14,4.6-14,12.6c0,8.3,4.8,13.3,13,13.3c7.4,0,13.2-5.1,13.2-11.7
	C55.5,34.1,50.7,28.5,43.4,28.5z"/>
</svg>
