<svg width="401" height="375" viewBox="0 0 401 375" fill="none" xmlns="http://www.w3.org/2000/svg">
<g filter="url(#filter0_d_13_48)">
<rect x="4" width="393" height="367" rx="9" fill="white"/>
<rect x="4.5" y="0.5" width="392" height="366" rx="8.5" stroke="white"/>
</g>
<path d="M56.14 32.96V47H52.72V38.58L49.58 47H46.82L43.66 38.56V47H40.24V32.96H44.28L48.22 42.68L52.12 32.96H56.14ZM69.4994 41.24C69.4994 41.56 69.4794 41.8933 69.4394 42.24H61.6994C61.7527 42.9333 61.9727 43.4667 62.3594 43.84C62.7594 44.2 63.246 44.38 63.8194 44.38C64.6727 44.38 65.266 44.02 65.5994 43.3H69.2394C69.0527 44.0333 68.7127 44.6933 68.2194 45.28C67.7394 45.8667 67.1327 46.3267 66.3994 46.66C65.666 46.9933 64.846 47.16 63.9394 47.16C62.846 47.16 61.8727 46.9267 61.0194 46.46C60.166 45.9933 59.4994 45.3267 59.0194 44.46C58.5394 43.5933 58.2994 42.58 58.2994 41.42C58.2994 40.26 58.5327 39.2467 58.9994 38.38C59.4794 37.5133 60.146 36.8467 60.9994 36.38C61.8527 35.9133 62.8327 35.68 63.9394 35.68C65.0194 35.68 65.9794 35.9067 66.8194 36.36C67.6594 36.8133 68.3127 37.46 68.7794 38.3C69.2594 39.14 69.4994 40.12 69.4994 41.24ZM65.9994 40.34C65.9994 39.7533 65.7994 39.2867 65.3994 38.94C64.9994 38.5933 64.4994 38.42 63.8994 38.42C63.326 38.42 62.8394 38.5867 62.4394 38.92C62.0527 39.2533 61.8127 39.7267 61.7194 40.34H65.9994ZM73.4036 34.68C72.8036 34.68 72.3103 34.5067 71.9236 34.16C71.5503 33.8 71.3636 33.36 71.3636 32.84C71.3636 32.3067 71.5503 31.8667 71.9236 31.52C72.3103 31.16 72.8036 30.98 73.4036 30.98C73.9903 30.98 74.4703 31.16 74.8436 31.52C75.2303 31.8667 75.4236 32.3067 75.4236 32.84C75.4236 33.36 75.2303 33.8 74.8436 34.16C74.4703 34.5067 73.9903 34.68 73.4036 34.68ZM75.1036 35.84V47H71.6836V35.84H75.1036ZM82.1203 44.26C82.5736 43.9 82.7803 43.7333 82.7403 43.76C84.047 42.68 85.0736 41.7933 85.8203 41.1C86.5803 40.4067 87.2203 39.68 87.7403 38.92C88.2603 38.16 88.5203 37.42 88.5203 36.7C88.5203 36.1533 88.3936 35.7267 88.1403 35.42C87.887 35.1133 87.507 34.96 87.0003 34.96C86.4936 34.96 86.0936 35.1533 85.8003 35.54C85.5203 35.9133 85.3803 36.4467 85.3803 37.14H82.0803C82.107 36.0067 82.347 35.06 82.8003 34.3C83.267 33.54 83.8736 32.98 84.6203 32.62C85.3803 32.26 86.2203 32.08 87.1403 32.08C88.727 32.08 89.9203 32.4867 90.7203 33.3C91.5336 34.1133 91.9403 35.1733 91.9403 36.48C91.9403 37.9067 91.4536 39.2333 90.4803 40.46C89.507 41.6733 88.267 42.86 86.7603 44.02H92.1603V46.8H82.1203V44.26ZM94.0461 39.5C94.0461 37.2067 94.4861 35.4 95.3661 34.08C96.2594 32.76 97.6928 32.1 99.6661 32.1C101.639 32.1 103.066 32.76 103.946 34.08C104.839 35.4 105.286 37.2067 105.286 39.5C105.286 41.82 104.839 43.64 103.946 44.96C103.066 46.28 101.639 46.94 99.6661 46.94C97.6928 46.94 96.2594 46.28 95.3661 44.96C94.4861 43.64 94.0461 41.82 94.0461 39.5ZM101.926 39.5C101.926 38.1533 101.779 37.12 101.486 36.4C101.193 35.6667 100.586 35.3 99.6661 35.3C98.7461 35.3 98.1394 35.6667 97.8461 36.4C97.5528 37.12 97.4061 38.1533 97.4061 39.5C97.4061 40.4067 97.4594 41.16 97.5661 41.76C97.6728 42.3467 97.8861 42.8267 98.2061 43.2C98.5394 43.56 99.0261 43.74 99.6661 43.74C100.306 43.74 100.786 43.56 101.106 43.2C101.439 42.8267 101.659 42.3467 101.766 41.76C101.873 41.16 101.926 40.4067 101.926 39.5ZM107.353 44.26C107.806 43.9 108.013 43.7333 107.973 43.76C109.28 42.68 110.306 41.7933 111.053 41.1C111.813 40.4067 112.453 39.68 112.973 38.92C113.493 38.16 113.753 37.42 113.753 36.7C113.753 36.1533 113.626 35.7267 113.373 35.42C113.12 35.1133 112.74 34.96 112.233 34.96C111.726 34.96 111.326 35.1533 111.033 35.54C110.753 35.9133 110.613 36.4467 110.613 37.14H107.313C107.34 36.0067 107.58 35.06 108.033 34.3C108.5 33.54 109.106 32.98 109.853 32.62C110.613 32.26 111.453 32.08 112.373 32.08C113.96 32.08 115.153 32.4867 115.953 33.3C116.766 34.1133 117.173 35.1733 117.173 36.48C117.173 37.9067 116.686 39.2333 115.713 40.46C114.74 41.6733 113.5 42.86 111.993 44.02H117.393V46.8H107.353V44.26ZM119.399 36.52C119.452 35.0933 119.919 33.9933 120.799 33.22C121.679 32.4467 122.872 32.06 124.379 32.06C125.379 32.06 126.232 32.2333 126.939 32.58C127.659 32.9267 128.199 33.4 128.559 34C128.932 34.6 129.119 35.2733 129.119 36.02C129.119 36.9 128.899 37.62 128.459 38.18C128.019 38.7267 127.505 39.1 126.919 39.3V39.38C127.679 39.6333 128.279 40.0533 128.719 40.64C129.159 41.2267 129.379 41.98 129.379 42.9C129.379 43.7267 129.185 44.46 128.799 45.1C128.425 45.7267 127.872 46.22 127.139 46.58C126.419 46.94 125.559 47.12 124.559 47.12C122.959 47.12 121.679 46.7267 120.719 45.94C119.772 45.1533 119.272 43.9667 119.219 42.38H122.539C122.552 42.9667 122.719 43.4333 123.039 43.78C123.359 44.1133 123.825 44.28 124.439 44.28C124.959 44.28 125.359 44.1333 125.639 43.84C125.932 43.5333 126.079 43.1333 126.079 42.64C126.079 42 125.872 41.54 125.459 41.26C125.059 40.9667 124.412 40.82 123.519 40.82H122.879V38.04H123.519C124.199 38.04 124.745 37.9267 125.159 37.7C125.585 37.46 125.799 37.04 125.799 36.44C125.799 35.96 125.665 35.5867 125.399 35.32C125.132 35.0533 124.765 34.92 124.299 34.92C123.792 34.92 123.412 35.0733 123.159 35.38C122.919 35.6867 122.779 36.0667 122.739 36.52H119.399Z" fill="#000F4D"/>
<path d="M49.2946 87H50.3866V80.796L53.1586 87H53.9266L56.6866 80.808V87H57.7786V78.696H56.6146L53.5426 85.56L50.4706 78.696H49.2946V87ZM65.8705 83.7C65.8705 81.624 64.4185 80.316 62.5465 80.316C60.6865 80.316 59.2225 81.624 59.2225 83.7C59.2225 85.788 60.6385 87.108 62.4985 87.108C64.3705 87.108 65.8705 85.788 65.8705 83.7ZM60.3385 83.7C60.3385 82.044 61.3825 81.264 62.5345 81.264C63.6625 81.264 64.7545 82.044 64.7545 83.7C64.7545 85.368 63.6385 86.148 62.4985 86.148C61.3585 86.148 60.3385 85.368 60.3385 83.7ZM72.1183 87H73.1983V83.124C73.1983 81.24 72.0343 80.304 70.5103 80.304C69.6223 80.304 68.8303 80.676 68.3983 81.36V80.424H67.3063V87H68.3983V83.364C68.3983 81.948 69.1663 81.252 70.2823 81.252C71.3863 81.252 72.1183 81.936 72.1183 83.28V87Z" fill="#3C3C43" fill-opacity="0.6"/>
<path d="M143.058 87.012L144.27 87L146.286 80.268L148.23 87H149.454L151.878 78.636H150.702L148.866 85.704L146.946 78.636H145.722L143.706 85.728L141.882 78.636H140.718L143.058 87.012ZM155.869 81.24C156.997 81.24 157.957 81.948 157.945 83.232H153.793C153.913 81.948 154.801 81.24 155.869 81.24ZM158.941 84.972H157.765C157.525 85.68 156.901 86.184 155.917 86.184C154.801 86.184 153.865 85.452 153.781 84.12H159.037C159.061 83.892 159.073 83.7 159.073 83.46C159.073 81.66 157.825 80.316 155.917 80.316C153.997 80.316 152.665 81.624 152.665 83.7C152.665 85.788 154.045 87.108 155.917 87.108C157.549 87.108 158.605 86.172 158.941 84.972ZM160.107 83.688C160.107 85.728 161.463 87.108 163.227 87.108C164.427 87.108 165.279 86.496 165.675 85.764V87H166.779V78.12H165.675V81.6C165.219 80.844 164.271 80.316 163.239 80.316C161.463 80.316 160.107 81.636 160.107 83.688ZM165.675 83.7C165.675 85.248 164.643 86.148 163.443 86.148C162.243 86.148 161.223 85.236 161.223 83.688C161.223 82.14 162.243 81.264 163.443 81.264C164.643 81.264 165.675 82.176 165.675 83.7Z" fill="#3C3C43" fill-opacity="0.6"/>
<path d="M97.2461 79.524H99.5381V87H100.63V79.524H102.91V78.636H97.2461V79.524ZM110.086 80.424H108.994V84.036C108.994 85.452 108.238 86.148 107.11 86.148C106.006 86.148 105.274 85.464 105.274 84.132V80.424H104.194V84.276C104.194 86.16 105.382 87.096 106.894 87.096C107.77 87.096 108.574 86.712 108.994 86.028V87H110.086V80.424ZM114.726 81.24C115.854 81.24 116.814 81.948 116.802 83.232H112.65C112.77 81.948 113.658 81.24 114.726 81.24ZM117.798 84.972H116.622C116.382 85.68 115.758 86.184 114.774 86.184C113.658 86.184 112.722 85.452 112.638 84.12H117.894C117.918 83.892 117.93 83.7 117.93 83.46C117.93 81.66 116.682 80.316 114.774 80.316C112.854 80.316 111.522 81.624 111.522 83.7C111.522 85.788 112.902 87.108 114.774 87.108C116.406 87.108 117.462 86.172 117.798 84.972Z" fill="#3C3C43" fill-opacity="0.6"/>
<path d="M189.986 79.524H192.278V87H193.37V79.524H195.65V78.636H189.986V79.524ZM196.994 87H198.086V83.364C198.086 81.948 198.854 81.252 199.97 81.252C201.074 81.252 201.806 81.936 201.806 83.28V87H202.886V83.124C202.886 81.24 201.722 80.304 200.258 80.304C199.334 80.304 198.518 80.676 198.086 81.372V78.12H196.994V87ZM210.502 80.424H209.41V84.036C209.41 85.452 208.654 86.148 207.526 86.148C206.422 86.148 205.69 85.464 205.69 84.132V80.424H204.61V84.276C204.61 86.16 205.798 87.096 207.31 87.096C208.186 87.096 208.99 86.712 209.41 86.028V87H210.502V80.424Z" fill="#3C3C43" fill-opacity="0.6"/>
<path d="M241.114 87H242.206V83.232H245.158V82.344H242.206V79.524H245.842V78.636H241.114V87ZM248.253 83.424C248.253 81.9 249.045 81.432 250.089 81.432H250.377V80.304C249.333 80.304 248.625 80.76 248.253 81.492V80.424H247.161V87H248.253V83.424ZM251.638 87H252.73V80.424H251.638V87ZM252.202 79.356C252.598 79.356 252.922 79.032 252.922 78.612C252.922 78.192 252.598 77.868 252.202 77.868C251.782 77.868 251.458 78.192 251.458 78.612C251.458 79.032 251.782 79.356 252.202 79.356Z" fill="#3C3C43" fill-opacity="0.6"/>
<path d="M289.955 84.72C289.955 81.624 285.443 82.968 285.443 80.808C285.443 79.908 286.151 79.44 287.051 79.464C288.071 79.476 288.599 80.112 288.671 80.676H289.871C289.739 79.404 288.695 78.528 287.099 78.528C285.443 78.528 284.327 79.464 284.327 80.844C284.327 83.952 288.851 82.512 288.851 84.768C288.851 85.56 288.227 86.16 287.171 86.16C286.007 86.16 285.515 85.464 285.443 84.768H284.279C284.303 86.148 285.491 87.084 287.171 87.084C288.983 87.084 289.955 85.908 289.955 84.72ZM291.154 83.688C291.154 85.728 292.51 87.108 294.262 87.108C295.474 87.108 296.326 86.484 296.722 85.776V87H297.826V80.424H296.722V81.624C296.338 80.94 295.498 80.316 294.274 80.316C292.51 80.316 291.154 81.636 291.154 83.688ZM296.722 83.7C296.722 85.248 295.69 86.148 294.49 86.148C293.29 86.148 292.27 85.236 292.27 83.688C292.27 82.14 293.29 81.264 294.49 81.264C295.69 81.264 296.722 82.176 296.722 83.7ZM299.912 85.2C299.912 86.52 300.572 87 301.736 87H302.72V86.076H301.916C301.244 86.076 301.004 85.848 301.004 85.2V81.324H302.72V80.424H301.004V78.768H299.912V80.424H299.06V81.324H299.912V85.2Z" fill="#3C3C43" fill-opacity="0.6"/>
<path d="M335.448 84.72C335.448 81.624 330.936 82.968 330.936 80.808C330.936 79.908 331.644 79.44 332.544 79.464C333.564 79.476 334.092 80.112 334.164 80.676H335.364C335.232 79.404 334.188 78.528 332.592 78.528C330.936 78.528 329.82 79.464 329.82 80.844C329.82 83.952 334.344 82.512 334.344 84.768C334.344 85.56 333.72 86.16 332.664 86.16C331.5 86.16 331.008 85.464 330.936 84.768H329.772C329.796 86.148 330.984 87.084 332.664 87.084C334.476 87.084 335.448 85.908 335.448 84.72ZM342.887 80.424H341.795V84.036C341.795 85.452 341.039 86.148 339.911 86.148C338.807 86.148 338.075 85.464 338.075 84.132V80.424H336.995V84.276C336.995 86.16 338.183 87.096 339.695 87.096C340.571 87.096 341.375 86.712 341.795 86.028V87H342.887V80.424ZM349.543 87H350.623V83.124C350.623 81.24 349.459 80.304 347.935 80.304C347.047 80.304 346.255 80.676 345.823 81.36V80.424H344.731V87H345.823V83.364C345.823 81.948 346.591 81.252 347.707 81.252C348.811 81.252 349.543 81.936 349.543 83.28V87Z" fill="#3C3C43" fill-opacity="0.6"/>
<path d="M52.5418 138.118C53.8965 137.03 54.9578 136.139 55.7258 135.446C56.4938 134.742 57.1392 134.011 57.6618 133.254C58.1952 132.486 58.4618 131.734 58.4618 130.998C58.4618 130.304 58.2912 129.76 57.9498 129.366C57.6192 128.96 57.0805 128.758 56.3338 128.758C55.6085 128.758 55.0432 128.987 54.6378 129.446C54.2432 129.894 54.0298 130.496 53.9978 131.254H52.5898C52.6325 130.059 52.9952 129.136 53.6778 128.486C54.3605 127.835 55.2405 127.51 56.3178 127.51C57.4165 127.51 58.2858 127.814 58.9258 128.422C59.5765 129.03 59.9018 129.867 59.9018 130.934C59.9018 131.819 59.6352 132.683 59.1018 133.526C58.5792 134.358 57.9818 135.094 57.3098 135.734C56.6378 136.363 55.7792 137.099 54.7338 137.942H60.2378V139.158H52.5418V138.118ZM63.713 133.27C63.1156 133.035 62.657 132.694 62.337 132.246C62.017 131.798 61.857 131.254 61.857 130.614C61.857 130.038 62.001 129.52 62.289 129.062C62.577 128.592 63.0036 128.224 63.569 127.958C64.145 127.68 64.8383 127.542 65.649 127.542C66.4596 127.542 67.1476 127.68 67.713 127.958C68.289 128.224 68.721 128.592 69.009 129.062C69.3076 129.52 69.457 130.038 69.457 130.614C69.457 131.232 69.2916 131.776 68.961 132.246C68.6303 132.704 68.177 133.046 67.601 133.27C68.2623 133.472 68.785 133.83 69.169 134.342C69.5636 134.843 69.761 135.451 69.761 136.166C69.761 136.859 69.5903 137.467 69.249 137.99C68.9076 138.502 68.4223 138.902 67.793 139.19C67.1743 139.467 66.4596 139.606 65.649 139.606C64.8383 139.606 64.1236 139.467 63.505 139.19C62.897 138.902 62.4223 138.502 62.081 137.99C61.7396 137.467 61.569 136.859 61.569 136.166C61.569 135.451 61.761 134.838 62.145 134.326C62.529 133.814 63.0516 133.462 63.713 133.27ZM68.049 130.79C68.049 130.139 67.8356 129.638 67.409 129.286C66.9823 128.934 66.3956 128.758 65.649 128.758C64.913 128.758 64.3316 128.934 63.905 129.286C63.4783 129.638 63.265 130.144 63.265 130.806C63.265 131.403 63.4836 131.883 63.921 132.246C64.369 132.608 64.945 132.79 65.649 132.79C66.3636 132.79 66.9396 132.608 67.377 132.246C67.825 131.872 68.049 131.387 68.049 130.79ZM65.649 133.91C64.8596 133.91 64.2143 134.096 63.713 134.47C63.2116 134.832 62.961 135.382 62.961 136.118C62.961 136.8 63.201 137.35 63.681 137.766C64.1716 138.182 64.8276 138.39 65.649 138.39C66.4703 138.39 67.121 138.182 67.601 137.766C68.081 137.35 68.321 136.8 68.321 136.118C68.321 135.403 68.0756 134.859 67.585 134.486C67.0943 134.102 66.449 133.91 65.649 133.91Z" fill="#808080"/>
<path d="M98.9784 139.158H106.674V137.942H101.17C103.234 136.262 106.338 133.814 106.338 130.934C106.338 128.79 104.93 127.51 102.754 127.51C100.674 127.51 99.1224 128.79 99.0264 131.254H100.434C100.498 129.798 101.266 128.758 102.77 128.758C104.338 128.758 104.898 129.718 104.898 130.998C104.898 133.366 102.018 135.67 98.9784 138.118V139.158ZM108.565 136.182C108.725 137.878 109.845 139.302 112.149 139.302C115.189 139.302 116.069 137.142 116.069 133.286C116.069 129.702 115.157 127.494 112.021 127.494C109.525 127.494 108.213 129.094 108.213 131.302C108.213 133.75 109.797 135.078 111.925 135.078C113.173 135.078 114.325 134.518 114.789 133.542C114.837 136.934 113.925 138.086 112.229 138.086C110.885 138.086 110.117 137.382 109.909 136.182H108.565ZM112.165 133.846C110.437 133.846 109.605 132.758 109.605 131.27C109.605 129.734 110.549 128.71 112.053 128.71C113.717 128.71 114.613 129.814 114.613 131.382C114.613 132.934 113.557 133.846 112.165 133.846Z" fill="#808080"/>
<path d="M145.457 130.63H146.881C147.025 129.51 147.841 128.742 149.201 128.742C150.593 128.742 151.329 129.51 151.329 130.614C151.329 131.958 150.289 132.55 148.353 132.566H147.969V133.782H148.337C150.417 133.782 151.553 134.406 151.553 136.038C151.553 137.222 150.817 138.134 149.265 138.134C147.729 138.134 146.833 137.19 146.689 135.958H145.281C145.457 138.198 147.089 139.366 149.281 139.366C151.697 139.366 152.945 137.958 152.945 136.166C152.945 134.502 152.033 133.51 150.689 133.19V133.11C151.905 132.838 152.737 131.798 152.737 130.47C152.737 128.806 151.505 127.494 149.249 127.494C147.105 127.494 145.601 128.646 145.457 130.63ZM154.591 133.382C154.591 136.742 155.423 139.286 158.623 139.286C161.807 139.286 162.639 136.742 162.639 133.382C162.639 130.07 161.807 127.542 158.623 127.542C155.423 127.542 154.591 130.07 154.591 133.382ZM161.199 133.382C161.199 135.878 160.895 137.958 158.623 137.958C156.335 137.958 156.031 135.878 156.031 133.382C156.031 130.982 156.335 128.87 158.623 128.87C160.895 128.87 161.199 130.982 161.199 133.382Z" fill="#808080"/>
<path d="M194.346 130.63H195.77C195.914 129.51 196.73 128.742 198.09 128.742C199.482 128.742 200.218 129.51 200.218 130.614C200.218 131.958 199.178 132.55 197.242 132.566H196.858V133.782H197.226C199.306 133.782 200.442 134.406 200.442 136.038C200.442 137.222 199.706 138.134 198.154 138.134C196.618 138.134 195.722 137.19 195.578 135.958H194.17C194.346 138.198 195.978 139.366 198.17 139.366C200.586 139.366 201.834 137.958 201.834 136.166C201.834 134.502 200.922 133.51 199.578 133.19V133.11C200.794 132.838 201.626 131.798 201.626 130.47C201.626 128.806 200.394 127.494 198.138 127.494C195.994 127.494 194.49 128.646 194.346 130.63ZM204.632 139.286H206.104V127.718H203.096V129.046H204.632V139.286Z" fill="#808080"/>
<path d="M244.974 129.046V127.718H247.982V139.286H246.51V129.046H244.974Z" fill="#000F4D"/>
<path d="M289.572 138.118C290.926 137.03 291.988 136.139 292.756 135.446C293.524 134.742 294.169 134.011 294.692 133.254C295.225 132.486 295.492 131.734 295.492 130.998C295.492 130.304 295.321 129.76 294.98 129.366C294.649 128.96 294.11 128.758 293.364 128.758C292.638 128.758 292.073 128.987 291.668 129.446C291.273 129.894 291.06 130.496 291.028 131.254H289.62C289.662 130.059 290.025 129.136 290.708 128.486C291.39 127.835 292.27 127.51 293.348 127.51C294.446 127.51 295.316 127.814 295.956 128.422C296.606 129.03 296.932 129.867 296.932 130.934C296.932 131.819 296.665 132.683 296.132 133.526C295.609 134.358 295.012 135.094 294.34 135.734C293.668 136.363 292.809 137.099 291.764 137.942H297.268V139.158H289.572V138.118Z" fill="#000F4D"/>
<path d="M336.035 130.63C336.109 129.648 336.488 128.88 337.171 128.326C337.853 127.771 338.739 127.494 339.827 127.494C340.552 127.494 341.176 127.627 341.699 127.894C342.232 128.15 342.632 128.502 342.899 128.95C343.176 129.398 343.315 129.904 343.315 130.47C343.315 131.131 343.123 131.702 342.739 132.182C342.365 132.662 341.875 132.971 341.267 133.11V133.19C341.96 133.36 342.509 133.696 342.915 134.198C343.32 134.699 343.523 135.355 343.523 136.166C343.523 136.774 343.384 137.323 343.107 137.814C342.829 138.294 342.413 138.672 341.859 138.95C341.304 139.227 340.637 139.366 339.859 139.366C338.728 139.366 337.8 139.072 337.075 138.486C336.349 137.888 335.944 137.046 335.859 135.958H337.267C337.341 136.598 337.603 137.12 338.051 137.526C338.499 137.931 339.096 138.134 339.843 138.134C340.589 138.134 341.155 137.942 341.539 137.558C341.933 137.163 342.131 136.656 342.131 136.038C342.131 135.238 341.864 134.662 341.331 134.31C340.797 133.958 339.992 133.782 338.915 133.782H338.547V132.566H338.931C339.912 132.555 340.653 132.395 341.155 132.086C341.656 131.766 341.907 131.275 341.907 130.614C341.907 130.048 341.72 129.595 341.347 129.254C340.984 128.912 340.461 128.742 339.779 128.742C339.117 128.742 338.584 128.912 338.179 129.254C337.773 129.595 337.533 130.054 337.459 130.63H336.035Z" fill="#000F4D"/>
<path d="M56.823 174.995V173.891L62.439 166.115H64.183V173.731H65.783V174.995H64.183V177.571H62.743V174.995H56.823ZM62.807 167.635L58.503 173.731H62.807V167.635Z" fill="#000F4D"/>
<path d="M110.988 167.267H105.372V170.915C105.617 170.574 105.98 170.297 106.46 170.083C106.94 169.859 107.457 169.747 108.012 169.747C108.897 169.747 109.617 169.934 110.172 170.307C110.726 170.67 111.121 171.145 111.356 171.731C111.601 172.307 111.724 172.921 111.724 173.571C111.724 174.339 111.58 175.027 111.292 175.635C111.004 176.243 110.561 176.723 109.964 177.075C109.377 177.427 108.646 177.603 107.772 177.603C106.652 177.603 105.745 177.315 105.052 176.739C104.358 176.163 103.937 175.395 103.788 174.435H105.212C105.35 175.043 105.644 175.518 106.092 175.859C106.54 176.201 107.105 176.371 107.788 176.371C108.63 176.371 109.265 176.121 109.692 175.619C110.118 175.107 110.332 174.435 110.332 173.603C110.332 172.771 110.118 172.131 109.692 171.683C109.265 171.225 108.636 170.995 107.804 170.995C107.238 170.995 106.742 171.134 106.316 171.411C105.9 171.678 105.596 172.046 105.404 172.515H104.028V165.987H110.988V167.267Z" fill="#000F4D"/>
<path d="M156.433 168.755C156.199 167.571 155.468 166.979 154.241 166.979C153.292 166.979 152.583 167.347 152.113 168.083C151.644 168.809 151.415 170.009 151.425 171.683C151.671 171.129 152.076 170.697 152.641 170.387C153.217 170.067 153.857 169.907 154.561 169.907C155.66 169.907 156.535 170.249 157.185 170.931C157.847 171.614 158.177 172.558 158.177 173.763C158.177 174.489 158.033 175.139 157.745 175.715C157.468 176.291 157.041 176.75 156.465 177.091C155.9 177.433 155.212 177.603 154.401 177.603C153.303 177.603 152.444 177.358 151.825 176.867C151.207 176.377 150.775 175.699 150.529 174.835C150.284 173.971 150.161 172.905 150.161 171.635C150.161 167.721 151.527 165.763 154.257 165.763C155.303 165.763 156.124 166.046 156.721 166.611C157.319 167.177 157.671 167.891 157.777 168.755H156.433ZM154.257 171.139C153.799 171.139 153.367 171.235 152.961 171.427C152.556 171.609 152.225 171.891 151.969 172.275C151.724 172.649 151.601 173.107 151.601 173.651C151.601 174.462 151.836 175.123 152.305 175.635C152.775 176.137 153.447 176.387 154.321 176.387C155.068 176.387 155.66 176.158 156.097 175.699C156.545 175.23 156.769 174.601 156.769 173.811C156.769 172.979 156.556 172.329 156.129 171.859C155.703 171.379 155.079 171.139 154.257 171.139Z" fill="#000F4D"/>
<path d="M204.245 167.139L199.797 177.571H198.325L202.837 167.283H196.661V166.035H204.245V167.139Z" fill="#000F4D"/>
<path d="M244.986 171.555C244.388 171.321 243.93 170.979 243.61 170.531C243.29 170.083 243.13 169.539 243.13 168.899C243.13 168.323 243.274 167.806 243.562 167.347C243.85 166.878 244.276 166.51 244.842 166.243C245.418 165.966 246.111 165.827 246.922 165.827C247.732 165.827 248.42 165.966 248.986 166.243C249.562 166.51 249.994 166.878 250.282 167.347C250.58 167.806 250.73 168.323 250.73 168.899C250.73 169.518 250.564 170.062 250.234 170.531C249.903 170.99 249.45 171.331 248.874 171.555C249.535 171.758 250.058 172.115 250.442 172.627C250.836 173.129 251.034 173.737 251.034 174.451C251.034 175.145 250.863 175.753 250.522 176.275C250.18 176.787 249.695 177.187 249.066 177.475C248.447 177.753 247.732 177.891 246.922 177.891C246.111 177.891 245.396 177.753 244.778 177.475C244.17 177.187 243.695 176.787 243.354 176.275C243.012 175.753 242.842 175.145 242.842 174.451C242.842 173.737 243.034 173.123 243.418 172.611C243.802 172.099 244.324 171.747 244.986 171.555ZM249.322 169.075C249.322 168.425 249.108 167.923 248.682 167.571C248.255 167.219 247.668 167.043 246.922 167.043C246.186 167.043 245.604 167.219 245.178 167.571C244.751 167.923 244.538 168.43 244.538 169.091C244.538 169.689 244.756 170.169 245.194 170.531C245.642 170.894 246.218 171.075 246.922 171.075C247.636 171.075 248.212 170.894 248.65 170.531C249.098 170.158 249.322 169.673 249.322 169.075ZM246.922 172.195C246.132 172.195 245.487 172.382 244.986 172.755C244.484 173.118 244.234 173.667 244.234 174.403C244.234 175.086 244.474 175.635 244.954 176.051C245.444 176.467 246.1 176.675 246.922 176.675C247.743 176.675 248.394 176.467 248.874 176.051C249.354 175.635 249.594 175.086 249.594 174.403C249.594 173.689 249.348 173.145 248.858 172.771C248.367 172.387 247.722 172.195 246.922 172.195Z" fill="#000F4D"/>
<path d="M291.182 174.467C291.289 175.075 291.534 175.545 291.918 175.875C292.313 176.206 292.841 176.371 293.502 176.371C294.387 176.371 295.038 176.025 295.454 175.331C295.881 174.638 296.083 173.47 296.062 171.827C295.838 172.307 295.465 172.686 294.942 172.963C294.419 173.23 293.838 173.363 293.198 173.363C292.483 173.363 291.843 173.219 291.278 172.931C290.723 172.633 290.286 172.201 289.966 171.635C289.646 171.07 289.486 170.387 289.486 169.587C289.486 168.446 289.817 167.529 290.478 166.835C291.139 166.131 292.078 165.779 293.294 165.779C294.787 165.779 295.833 166.265 296.43 167.235C297.038 168.206 297.342 169.651 297.342 171.571C297.342 172.915 297.219 174.025 296.974 174.899C296.739 175.774 296.334 176.441 295.758 176.899C295.193 177.358 294.414 177.587 293.422 177.587C292.334 177.587 291.486 177.294 290.878 176.707C290.27 176.121 289.923 175.374 289.838 174.467H291.182ZM293.438 172.131C294.153 172.131 294.739 171.913 295.198 171.475C295.657 171.027 295.886 170.425 295.886 169.667C295.886 168.867 295.662 168.222 295.214 167.731C294.766 167.241 294.137 166.995 293.326 166.995C292.579 166.995 291.982 167.23 291.534 167.699C291.097 168.169 290.878 168.787 290.878 169.555C290.878 170.334 291.097 170.958 291.534 171.427C291.971 171.897 292.606 172.131 293.438 172.131Z" fill="#000F4D"/>
<path d="M332.968 167.331V166.003H335.976V177.571H334.504V167.331H332.968ZM338.157 171.667C338.157 169.833 338.455 168.403 339.053 167.379C339.65 166.345 340.695 165.827 342.189 165.827C343.671 165.827 344.711 166.345 345.309 167.379C345.906 168.403 346.205 169.833 346.205 171.667C346.205 173.534 345.906 174.985 345.309 176.019C344.711 177.054 343.671 177.571 342.189 177.571C340.695 177.571 339.65 177.054 339.053 176.019C338.455 174.985 338.157 173.534 338.157 171.667ZM344.765 171.667C344.765 170.739 344.701 169.955 344.573 169.315C344.455 168.665 344.205 168.142 343.821 167.747C343.447 167.353 342.903 167.155 342.189 167.155C341.463 167.155 340.909 167.353 340.525 167.747C340.151 168.142 339.901 168.665 339.773 169.315C339.655 169.955 339.597 170.739 339.597 171.667C339.597 172.627 339.655 173.433 339.773 174.083C339.901 174.734 340.151 175.257 340.525 175.651C340.909 176.046 341.463 176.243 342.189 176.243C342.903 176.243 343.447 176.046 343.821 175.651C344.205 175.257 344.455 174.734 344.573 174.083C344.701 173.433 344.765 172.627 344.765 171.667Z" fill="#000F4D"/>
<path d="M56.8573 205.617V204.289H59.8653V215.857H58.3933V205.617H56.8573ZM61.6623 205.617V204.289H64.6703V215.857H63.1983V205.617H61.6623Z" fill="#000F4D"/>
<path d="M101.247 205.617V204.289H104.255V215.857H102.783V205.617H101.247ZM106.26 214.689C107.615 213.601 108.676 212.711 109.444 212.017C110.212 211.313 110.857 210.583 111.38 209.825C111.913 209.057 112.18 208.305 112.18 207.569C112.18 206.876 112.009 206.332 111.668 205.937C111.337 205.532 110.799 205.329 110.052 205.329C109.327 205.329 108.761 205.559 108.356 206.017C107.961 206.465 107.748 207.068 107.716 207.825H106.308C106.351 206.631 106.713 205.708 107.396 205.057C108.079 204.407 108.959 204.081 110.036 204.081C111.135 204.081 112.004 204.385 112.644 204.993C113.295 205.601 113.62 206.439 113.62 207.505C113.62 208.391 113.353 209.255 112.82 210.097C112.297 210.929 111.7 211.665 111.028 212.305C110.356 212.935 109.497 213.671 108.452 214.513H113.956V215.729H106.26V214.689Z" fill="#000F4D"/>
<path d="M147.566 205.617V204.289H150.574V215.857H149.102V205.617H147.566ZM152.723 207.201C152.798 206.22 153.176 205.452 153.859 204.897C154.542 204.343 155.427 204.065 156.515 204.065C157.24 204.065 157.864 204.199 158.387 204.465C158.92 204.721 159.32 205.073 159.587 205.521C159.864 205.969 160.003 206.476 160.003 207.041C160.003 207.703 159.811 208.273 159.427 208.753C159.054 209.233 158.563 209.543 157.955 209.681V209.761C158.648 209.932 159.198 210.268 159.603 210.769C160.008 211.271 160.211 211.927 160.211 212.737C160.211 213.345 160.072 213.895 159.795 214.385C159.518 214.865 159.102 215.244 158.547 215.521C157.992 215.799 157.326 215.937 156.547 215.937C155.416 215.937 154.488 215.644 153.763 215.057C153.038 214.46 152.632 213.617 152.547 212.529H153.955C154.03 213.169 154.291 213.692 154.739 214.097C155.187 214.503 155.784 214.705 156.531 214.705C157.278 214.705 157.843 214.513 158.227 214.129C158.622 213.735 158.819 213.228 158.819 212.609C158.819 211.809 158.552 211.233 158.019 210.881C157.486 210.529 156.68 210.353 155.603 210.353H155.235V209.137H155.619C156.6 209.127 157.342 208.967 157.843 208.657C158.344 208.337 158.595 207.847 158.595 207.185C158.595 206.62 158.408 206.167 158.035 205.825C157.672 205.484 157.15 205.313 156.467 205.313C155.806 205.313 155.272 205.484 154.867 205.825C154.462 206.167 154.222 206.625 154.147 207.201H152.723Z" fill="#000F4D"/>
<path d="M193.674 205.617V204.289H196.682V215.857H195.21V205.617H193.674ZM198.511 213.281V212.177L204.127 204.401H205.871V212.017H207.471V213.281H205.871V215.857H204.431V213.281H198.511ZM204.495 205.921L200.191 212.017H204.495V205.921Z" fill="#000F4D"/>
<path d="M240.111 205.617V204.289H243.119V215.857H241.647V205.617H240.111ZM252.676 205.553H247.06V209.201C247.305 208.86 247.668 208.583 248.148 208.369C248.628 208.145 249.145 208.033 249.7 208.033C250.585 208.033 251.305 208.22 251.86 208.593C252.414 208.956 252.809 209.431 253.044 210.017C253.289 210.593 253.412 211.207 253.412 211.857C253.412 212.625 253.268 213.313 252.98 213.921C252.692 214.529 252.249 215.009 251.652 215.361C251.065 215.713 250.334 215.889 249.46 215.889C248.34 215.889 247.433 215.601 246.74 215.025C246.046 214.449 245.625 213.681 245.476 212.721H246.9C247.038 213.329 247.332 213.804 247.78 214.145C248.228 214.487 248.793 214.657 249.476 214.657C250.318 214.657 250.953 214.407 251.38 213.905C251.806 213.393 252.02 212.721 252.02 211.889C252.02 211.057 251.806 210.417 251.38 209.969C250.953 209.511 250.324 209.281 249.492 209.281C248.926 209.281 248.43 209.42 248.004 209.697C247.588 209.964 247.284 210.332 247.092 210.801H245.716V204.273H252.676V205.553Z" fill="#000F4D"/>
<path d="M286.484 205.617V204.289H289.492V215.857H288.02V205.617H286.484ZM298.121 207.041C297.887 205.857 297.156 205.265 295.929 205.265C294.98 205.265 294.271 205.633 293.801 206.369C293.332 207.095 293.103 208.295 293.113 209.969C293.359 209.415 293.764 208.983 294.329 208.673C294.905 208.353 295.545 208.193 296.249 208.193C297.348 208.193 298.223 208.535 298.873 209.217C299.535 209.9 299.865 210.844 299.865 212.049C299.865 212.775 299.721 213.425 299.433 214.001C299.156 214.577 298.729 215.036 298.153 215.377C297.588 215.719 296.9 215.889 296.089 215.889C294.991 215.889 294.132 215.644 293.513 215.153C292.895 214.663 292.463 213.985 292.217 213.121C291.972 212.257 291.849 211.191 291.849 209.921C291.849 206.007 293.215 204.049 295.945 204.049C296.991 204.049 297.812 204.332 298.409 204.897C299.007 205.463 299.359 206.177 299.465 207.041H298.121ZM295.945 209.425C295.487 209.425 295.055 209.521 294.649 209.713C294.244 209.895 293.913 210.177 293.657 210.561C293.412 210.935 293.289 211.393 293.289 211.937C293.289 212.748 293.524 213.409 293.993 213.921C294.463 214.423 295.135 214.673 296.009 214.673C296.756 214.673 297.348 214.444 297.785 213.985C298.233 213.516 298.457 212.887 298.457 212.097C298.457 211.265 298.244 210.615 297.817 210.145C297.391 209.665 296.767 209.425 295.945 209.425Z" fill="#000F4D"/>
<path d="M333.624 205.617V204.289H336.632V215.857H335.16V205.617H333.624ZM345.933 205.425L341.485 215.857H340.013L344.525 205.569H338.349V204.321H345.933V205.425Z" fill="#000F4D"/>
<path d="M54.3729 243.903V242.575H57.3809V254.143H55.9089V243.903H54.3729ZM61.6739 248.127C61.0766 247.892 60.6179 247.551 60.2979 247.103C59.9779 246.655 59.8179 246.111 59.8179 245.471C59.8179 244.895 59.9619 244.377 60.2499 243.919C60.5379 243.449 60.9646 243.081 61.5299 242.815C62.1059 242.537 62.7992 242.399 63.6099 242.399C64.4206 242.399 65.1086 242.537 65.6739 242.815C66.2499 243.081 66.6819 243.449 66.9699 243.919C67.2686 244.377 67.4179 244.895 67.4179 245.471C67.4179 246.089 67.2526 246.633 66.9219 247.103C66.5912 247.561 66.1379 247.903 65.5619 248.127C66.2232 248.329 66.7459 248.687 67.1299 249.199C67.5246 249.7 67.7219 250.308 67.7219 251.023C67.7219 251.716 67.5512 252.324 67.2099 252.847C66.8686 253.359 66.3832 253.759 65.7539 254.047C65.1352 254.324 64.4206 254.463 63.6099 254.463C62.7992 254.463 62.0846 254.324 61.4659 254.047C60.8579 253.759 60.3832 253.359 60.0419 252.847C59.7006 252.324 59.5299 251.716 59.5299 251.023C59.5299 250.308 59.7219 249.695 60.1059 249.183C60.4899 248.671 61.0126 248.319 61.6739 248.127ZM66.0099 245.647C66.0099 244.996 65.7966 244.495 65.3699 244.143C64.9432 243.791 64.3566 243.615 63.6099 243.615C62.8739 243.615 62.2926 243.791 61.8659 244.143C61.4392 244.495 61.2259 245.001 61.2259 245.663C61.2259 246.26 61.4446 246.74 61.8819 247.103C62.3299 247.465 62.9059 247.647 63.6099 247.647C64.3246 247.647 64.9006 247.465 65.3379 247.103C65.7859 246.729 66.0099 246.244 66.0099 245.647ZM63.6099 248.767C62.8206 248.767 62.1752 248.953 61.6739 249.327C61.1726 249.689 60.9219 250.239 60.9219 250.975C60.9219 251.657 61.1619 252.207 61.6419 252.623C62.1326 253.039 62.7886 253.247 63.6099 253.247C64.4312 253.247 65.0819 253.039 65.5619 252.623C66.0419 252.207 66.2819 251.657 66.2819 250.975C66.2819 250.26 66.0366 249.716 65.5459 249.343C65.0552 248.959 64.4099 248.767 63.6099 248.767Z" fill="#000F4D"/>
<path d="M145.422 252.975C146.777 251.887 147.838 250.996 148.606 250.303C149.374 249.599 150.02 248.868 150.542 248.111C151.076 247.343 151.342 246.591 151.342 245.855C151.342 245.161 151.172 244.617 150.83 244.223C150.5 243.817 149.961 243.615 149.214 243.615C148.489 243.615 147.924 243.844 147.518 244.303C147.124 244.751 146.91 245.353 146.878 246.111H145.47C145.513 244.916 145.876 243.993 146.558 243.343C147.241 242.692 148.121 242.367 149.198 242.367C150.297 242.367 151.166 242.671 151.806 243.279C152.457 243.887 152.782 244.724 152.782 245.791C152.782 246.676 152.516 247.54 151.982 248.383C151.46 249.215 150.862 249.951 150.19 250.591C149.518 251.22 148.66 251.956 147.614 252.799H153.118V254.015H145.422V252.975ZM154.482 248.239C154.482 246.404 154.78 244.975 155.378 243.951C155.975 242.916 157.02 242.399 158.514 242.399C159.996 242.399 161.036 242.916 161.634 243.951C162.231 244.975 162.53 246.404 162.53 248.239C162.53 250.105 162.231 251.556 161.634 252.591C161.036 253.625 159.996 254.143 158.514 254.143C157.02 254.143 155.975 253.625 155.378 252.591C154.78 251.556 154.482 250.105 154.482 248.239ZM161.09 248.239C161.09 247.311 161.026 246.527 160.898 245.887C160.78 245.236 160.53 244.713 160.146 244.319C159.772 243.924 159.228 243.727 158.514 243.727C157.788 243.727 157.234 243.924 156.85 244.319C156.476 244.713 156.226 245.236 156.098 245.887C155.98 246.527 155.922 247.311 155.922 248.239C155.922 249.199 155.98 250.004 156.098 250.655C156.226 251.305 156.476 251.828 156.85 252.223C157.234 252.617 157.788 252.815 158.514 252.815C159.228 252.815 159.772 252.617 160.146 252.223C160.53 251.828 160.78 251.305 160.898 250.655C161.026 250.004 161.09 249.199 161.09 248.239Z" fill="#000F4D"/>
<path d="M194.312 252.975C195.667 251.887 196.728 250.996 197.496 250.303C198.264 249.599 198.909 248.868 199.432 248.111C199.965 247.343 200.232 246.591 200.232 245.855C200.232 245.161 200.061 244.617 199.72 244.223C199.389 243.817 198.851 243.615 198.104 243.615C197.379 243.615 196.813 243.844 196.408 244.303C196.013 244.751 195.8 245.353 195.768 246.111H194.36C194.403 244.916 194.765 243.993 195.448 243.343C196.131 242.692 197.011 242.367 198.088 242.367C199.187 242.367 200.056 242.671 200.696 243.279C201.347 243.887 201.672 244.724 201.672 245.791C201.672 246.676 201.405 247.54 200.872 248.383C200.349 249.215 199.752 249.951 199.08 250.591C198.408 251.22 197.549 251.956 196.504 252.799H202.008V254.015H194.312V252.975ZM202.987 243.903V242.575H205.995V254.143H204.523V243.903H202.987Z" fill="#000F4D"/>
<path d="M238.702 252.975C240.056 251.887 241.118 250.996 241.886 250.303C242.654 249.599 243.299 248.868 243.822 248.111C244.355 247.343 244.622 246.591 244.622 245.855C244.622 245.161 244.451 244.617 244.11 244.223C243.779 243.817 243.24 243.615 242.494 243.615C241.768 243.615 241.203 243.844 240.798 244.303C240.403 244.751 240.19 245.353 240.158 246.111H238.75C238.792 244.916 239.155 243.993 239.838 243.343C240.52 242.692 241.4 242.367 242.478 242.367C243.576 242.367 244.446 242.671 245.086 243.279C245.736 243.887 246.062 244.724 246.062 245.791C246.062 246.676 245.795 247.54 245.262 248.383C244.739 249.215 244.142 249.951 243.47 250.591C242.798 251.22 241.939 251.956 240.894 252.799H246.398V254.015H238.702V252.975ZM247.585 252.975C248.939 251.887 250.001 250.996 250.769 250.303C251.537 249.599 252.182 248.868 252.705 248.111C253.238 247.343 253.505 246.591 253.505 245.855C253.505 245.161 253.334 244.617 252.993 244.223C252.662 243.817 252.123 243.615 251.377 243.615C250.651 243.615 250.086 243.844 249.681 244.303C249.286 244.751 249.073 245.353 249.041 246.111H247.633C247.675 244.916 248.038 243.993 248.721 243.343C249.403 242.692 250.283 242.367 251.361 242.367C252.459 242.367 253.329 242.671 253.969 243.279C254.619 243.887 254.945 244.724 254.945 245.791C254.945 246.676 254.678 247.54 254.145 248.383C253.622 249.215 253.025 249.951 252.353 250.591C251.681 251.22 250.822 251.956 249.777 252.799H255.281V254.015H247.585V252.975Z" fill="#000F4D"/>
<path d="M285.021 252.975C286.375 251.887 287.437 250.996 288.205 250.303C288.973 249.599 289.618 248.868 290.141 248.111C290.674 247.343 290.941 246.591 290.941 245.855C290.941 245.161 290.77 244.617 290.429 244.223C290.098 243.817 289.559 243.615 288.813 243.615C288.087 243.615 287.522 243.844 287.117 244.303C286.722 244.751 286.509 245.353 286.477 246.111H285.069C285.111 244.916 285.474 243.993 286.157 243.343C286.839 242.692 287.719 242.367 288.797 242.367C289.895 242.367 290.765 242.671 291.405 243.279C292.055 243.887 292.381 244.724 292.381 245.791C292.381 246.676 292.114 247.54 291.581 248.383C291.058 249.215 290.461 249.951 289.789 250.591C289.117 251.22 288.258 251.956 287.213 252.799H292.717V254.015H285.021V252.975ZM294.048 245.487C294.122 244.505 294.501 243.737 295.184 243.183C295.866 242.628 296.752 242.351 297.84 242.351C298.565 242.351 299.189 242.484 299.712 242.751C300.245 243.007 300.645 243.359 300.912 243.807C301.189 244.255 301.328 244.761 301.328 245.327C301.328 245.988 301.136 246.559 300.752 247.039C300.378 247.519 299.888 247.828 299.28 247.967V248.047C299.973 248.217 300.522 248.553 300.928 249.055C301.333 249.556 301.536 250.212 301.536 251.023C301.536 251.631 301.397 252.18 301.12 252.671C300.842 253.151 300.426 253.529 299.872 253.807C299.317 254.084 298.65 254.223 297.872 254.223C296.741 254.223 295.813 253.929 295.088 253.343C294.362 252.745 293.957 251.903 293.872 250.815H295.28C295.354 251.455 295.616 251.977 296.064 252.383C296.512 252.788 297.109 252.991 297.856 252.991C298.602 252.991 299.168 252.799 299.552 252.415C299.946 252.02 300.144 251.513 300.144 250.895C300.144 250.095 299.877 249.519 299.344 249.167C298.81 248.815 298.005 248.639 296.928 248.639H296.56V247.423H296.944C297.925 247.412 298.666 247.252 299.168 246.943C299.669 246.623 299.92 246.132 299.92 245.471C299.92 244.905 299.733 244.452 299.36 244.111C298.997 243.769 298.474 243.599 297.792 243.599C297.13 243.599 296.597 243.769 296.192 244.111C295.786 244.452 295.546 244.911 295.472 245.487H294.048Z" fill="#000F4D"/>
<path d="M331.129 252.975C332.483 251.887 333.545 250.996 334.313 250.303C335.081 249.599 335.726 248.868 336.249 248.111C336.782 247.343 337.049 246.591 337.049 245.855C337.049 245.161 336.878 244.617 336.537 244.223C336.206 243.817 335.667 243.615 334.921 243.615C334.195 243.615 333.63 243.844 333.225 244.303C332.83 244.751 332.617 245.353 332.585 246.111H331.177C331.219 244.916 331.582 243.993 332.265 243.343C332.947 242.692 333.827 242.367 334.905 242.367C336.003 242.367 336.873 242.671 337.513 243.279C338.163 243.887 338.489 244.724 338.489 245.791C338.489 246.676 338.222 247.54 337.689 248.383C337.166 249.215 336.569 249.951 335.897 250.591C335.225 251.22 334.366 251.956 333.321 252.799H338.825V254.015H331.129V252.975ZM339.836 251.567V250.463L345.452 242.687H347.196V250.303H348.796V251.567H347.196V254.143H345.756V251.567H339.836ZM345.82 244.207L341.516 250.303H345.82V244.207Z" fill="#000F4D"/>
<path d="M52.5653 291.261C53.92 290.173 54.9813 289.282 55.7493 288.589C56.5173 287.885 57.1626 287.154 57.6853 286.397C58.2186 285.629 58.4853 284.877 58.4853 284.141C58.4853 283.447 58.3146 282.903 57.9733 282.509C57.6426 282.103 57.104 281.901 56.3573 281.901C55.632 281.901 55.0666 282.13 54.6613 282.589C54.2666 283.037 54.0533 283.639 54.0213 284.397H52.6133C52.656 283.202 53.0186 282.279 53.7013 281.629C54.384 280.978 55.264 280.653 56.3413 280.653C57.44 280.653 58.3093 280.957 58.9493 281.565C59.6 282.173 59.9253 283.01 59.9253 284.077C59.9253 284.962 59.6586 285.826 59.1253 286.669C58.6026 287.501 58.0053 288.237 57.3333 288.877C56.6613 289.506 55.8026 290.242 54.7573 291.085H60.2613V292.301H52.5653V291.261ZM69.0004 282.125H63.3844V285.773C63.6297 285.431 63.9924 285.154 64.4724 284.941C64.9524 284.717 65.4697 284.605 66.0244 284.605C66.9097 284.605 67.6297 284.791 68.1844 285.165C68.7391 285.527 69.1337 286.002 69.3684 286.589C69.6137 287.165 69.7364 287.778 69.7364 288.429C69.7364 289.197 69.5924 289.885 69.3044 290.493C69.0164 291.101 68.5737 291.581 67.9764 291.933C67.3897 292.285 66.6591 292.461 65.7844 292.461C64.6644 292.461 63.7577 292.173 63.0644 291.597C62.3711 291.021 61.9497 290.253 61.8004 289.293H63.2244C63.3631 289.901 63.6564 290.375 64.1044 290.717C64.5524 291.058 65.1177 291.229 65.8004 291.229C66.6431 291.229 67.2777 290.978 67.7044 290.477C68.1311 289.965 68.3444 289.293 68.3444 288.461C68.3444 287.629 68.1311 286.989 67.7044 286.541C67.2777 286.082 66.6484 285.853 65.8164 285.853C65.2511 285.853 64.7551 285.991 64.3284 286.269C63.9124 286.535 63.6084 286.903 63.4164 287.373H62.0404V280.845H69.0004V282.125Z" fill="#000F4D"/>
<path d="M98.9393 291.261C100.294 290.173 101.355 289.282 102.123 288.589C102.891 287.885 103.537 287.154 104.059 286.397C104.593 285.629 104.859 284.877 104.859 284.141C104.859 283.447 104.689 282.903 104.347 282.509C104.017 282.103 103.478 281.901 102.731 281.901C102.006 281.901 101.441 282.13 101.035 282.589C100.641 283.037 100.427 283.639 100.395 284.397H98.9873C99.03 283.202 99.3926 282.279 100.075 281.629C100.758 280.978 101.638 280.653 102.715 280.653C103.814 280.653 104.683 280.957 105.323 281.565C105.974 282.173 106.299 283.01 106.299 284.077C106.299 284.962 106.033 285.826 105.499 286.669C104.977 287.501 104.379 288.237 103.707 288.877C103.035 289.506 102.177 290.242 101.131 291.085H106.635V292.301H98.9393V291.261ZM114.446 283.613C114.212 282.429 113.481 281.837 112.254 281.837C111.305 281.837 110.596 282.205 110.126 282.941C109.657 283.666 109.428 284.866 109.438 286.541C109.684 285.986 110.089 285.554 110.654 285.245C111.23 284.925 111.87 284.765 112.574 284.765C113.673 284.765 114.548 285.106 115.198 285.789C115.86 286.471 116.19 287.415 116.19 288.621C116.19 289.346 116.046 289.997 115.758 290.573C115.481 291.149 115.054 291.607 114.478 291.949C113.913 292.29 113.225 292.461 112.414 292.461C111.316 292.461 110.457 292.215 109.838 291.725C109.22 291.234 108.788 290.557 108.542 289.693C108.297 288.829 108.174 287.762 108.174 286.493C108.174 282.578 109.54 280.621 112.27 280.621C113.316 280.621 114.137 280.903 114.734 281.469C115.332 282.034 115.684 282.749 115.79 283.613H114.446ZM112.27 285.997C111.812 285.997 111.38 286.093 110.974 286.285C110.569 286.466 110.238 286.749 109.982 287.133C109.737 287.506 109.614 287.965 109.614 288.509C109.614 289.319 109.849 289.981 110.318 290.493C110.788 290.994 111.46 291.245 112.334 291.245C113.081 291.245 113.673 291.015 114.11 290.557C114.558 290.087 114.782 289.458 114.782 288.669C114.782 287.837 114.569 287.186 114.142 286.717C113.716 286.237 113.092 285.997 112.27 285.997Z" fill="#000F4D"/>
<path d="M146.079 291.261C147.433 290.173 148.495 289.282 149.263 288.589C150.031 287.885 150.676 287.154 151.199 286.397C151.732 285.629 151.999 284.877 151.999 284.141C151.999 283.447 151.828 282.903 151.487 282.509C151.156 282.103 150.617 281.901 149.871 281.901C149.145 281.901 148.58 282.13 148.175 282.589C147.78 283.037 147.567 283.639 147.535 284.397H146.127C146.169 283.202 146.532 282.279 147.215 281.629C147.897 280.978 148.777 280.653 149.855 280.653C150.953 280.653 151.823 280.957 152.463 281.565C153.113 282.173 153.439 283.01 153.439 284.077C153.439 284.962 153.172 285.826 152.639 286.669C152.116 287.501 151.519 288.237 150.847 288.877C150.175 289.506 149.316 290.242 148.271 291.085H153.775V292.301H146.079V291.261ZM162.258 281.997L157.81 292.429H156.338L160.85 282.141H154.674V280.893H162.258V281.997Z" fill="#000F4D"/>
<path d="M191.827 291.261C193.182 290.173 194.243 289.282 195.011 288.589C195.779 287.885 196.425 287.154 196.947 286.397C197.481 285.629 197.747 284.877 197.747 284.141C197.747 283.447 197.577 282.903 197.235 282.509C196.905 282.103 196.366 281.901 195.619 281.901C194.894 281.901 194.329 282.13 193.923 282.589C193.529 283.037 193.315 283.639 193.283 284.397H191.875C191.918 283.202 192.281 282.279 192.963 281.629C193.646 280.978 194.526 280.653 195.603 280.653C196.702 280.653 197.571 280.957 198.211 281.565C198.862 282.173 199.187 283.01 199.187 284.077C199.187 284.962 198.921 285.826 198.387 286.669C197.865 287.501 197.267 288.237 196.595 288.877C195.923 289.506 195.065 290.242 194.019 291.085H199.523V292.301H191.827V291.261ZM202.999 286.413C202.401 286.178 201.943 285.837 201.623 285.389C201.303 284.941 201.143 284.397 201.143 283.757C201.143 283.181 201.287 282.663 201.575 282.205C201.863 281.735 202.289 281.367 202.855 281.101C203.431 280.823 204.124 280.685 204.935 280.685C205.745 280.685 206.433 280.823 206.999 281.101C207.575 281.367 208.007 281.735 208.295 282.205C208.593 282.663 208.743 283.181 208.743 283.757C208.743 284.375 208.577 284.919 208.247 285.389C207.916 285.847 207.463 286.189 206.887 286.413C207.548 286.615 208.071 286.973 208.455 287.485C208.849 287.986 209.047 288.594 209.047 289.309C209.047 290.002 208.876 290.61 208.535 291.133C208.193 291.645 207.708 292.045 207.079 292.333C206.46 292.61 205.745 292.749 204.935 292.749C204.124 292.749 203.409 292.61 202.791 292.333C202.183 292.045 201.708 291.645 201.367 291.133C201.025 290.61 200.855 290.002 200.855 289.309C200.855 288.594 201.047 287.981 201.431 287.469C201.815 286.957 202.337 286.605 202.999 286.413ZM207.335 283.933C207.335 283.282 207.121 282.781 206.695 282.429C206.268 282.077 205.681 281.901 204.935 281.901C204.199 281.901 203.617 282.077 203.191 282.429C202.764 282.781 202.551 283.287 202.551 283.949C202.551 284.546 202.769 285.026 203.207 285.389C203.655 285.751 204.231 285.933 204.935 285.933C205.649 285.933 206.225 285.751 206.663 285.389C207.111 285.015 207.335 284.53 207.335 283.933ZM204.935 287.053C204.145 287.053 203.5 287.239 202.999 287.613C202.497 287.975 202.247 288.525 202.247 289.261C202.247 289.943 202.487 290.493 202.967 290.909C203.457 291.325 204.113 291.533 204.935 291.533C205.756 291.533 206.407 291.325 206.887 290.909C207.367 290.493 207.607 289.943 207.607 289.261C207.607 288.546 207.361 288.002 206.871 287.629C206.38 287.245 205.735 287.053 204.935 287.053Z" fill="#000F4D"/>
<path d="M238.264 291.261C239.619 290.173 240.68 289.282 241.448 288.589C242.216 287.885 242.861 287.154 243.384 286.397C243.917 285.629 244.184 284.877 244.184 284.141C244.184 283.447 244.013 282.903 243.672 282.509C243.341 282.103 242.803 281.901 242.056 281.901C241.331 281.901 240.765 282.13 240.36 282.589C239.965 283.037 239.752 283.639 239.72 284.397H238.312C238.355 283.202 238.717 282.279 239.4 281.629C240.083 280.978 240.963 280.653 242.04 280.653C243.139 280.653 244.008 280.957 244.648 281.565C245.299 282.173 245.624 283.01 245.624 284.077C245.624 284.962 245.357 285.826 244.824 286.669C244.301 287.501 243.704 288.237 243.032 288.877C242.36 289.506 241.501 290.242 240.456 291.085H245.96V292.301H238.264V291.261ZM249.195 289.325C249.302 289.933 249.547 290.402 249.931 290.733C250.326 291.063 250.854 291.229 251.515 291.229C252.4 291.229 253.051 290.882 253.467 290.189C253.894 289.495 254.096 288.327 254.075 286.685C253.851 287.165 253.478 287.543 252.955 287.821C252.432 288.087 251.851 288.221 251.211 288.221C250.496 288.221 249.856 288.077 249.291 287.789C248.736 287.49 248.299 287.058 247.979 286.493C247.659 285.927 247.499 285.245 247.499 284.445C247.499 283.303 247.83 282.386 248.491 281.693C249.152 280.989 250.091 280.637 251.307 280.637C252.8 280.637 253.846 281.122 254.443 282.093C255.051 283.063 255.355 284.509 255.355 286.429C255.355 287.773 255.232 288.882 254.987 289.757C254.752 290.631 254.347 291.298 253.771 291.757C253.206 292.215 252.427 292.445 251.435 292.445C250.347 292.445 249.499 292.151 248.891 291.565C248.283 290.978 247.936 290.231 247.851 289.325H249.195ZM251.451 286.989C252.166 286.989 252.752 286.77 253.211 286.333C253.67 285.885 253.899 285.282 253.899 284.525C253.899 283.725 253.675 283.079 253.227 282.589C252.779 282.098 252.15 281.853 251.339 281.853C250.592 281.853 249.995 282.087 249.547 282.557C249.11 283.026 248.891 283.645 248.891 284.413C248.891 285.191 249.11 285.815 249.547 286.285C249.984 286.754 250.619 286.989 251.451 286.989Z" fill="#000F4D"/>
<path d="M284.743 283.773C284.817 282.791 285.196 282.023 285.879 281.469C286.561 280.914 287.447 280.637 288.535 280.637C289.26 280.637 289.884 280.77 290.407 281.037C290.94 281.293 291.34 281.645 291.607 282.093C291.884 282.541 292.023 283.047 292.023 283.613C292.023 284.274 291.831 284.845 291.447 285.325C291.073 285.805 290.583 286.114 289.975 286.253V286.333C290.668 286.503 291.217 286.839 291.623 287.341C292.028 287.842 292.231 288.498 292.231 289.309C292.231 289.917 292.092 290.466 291.815 290.957C291.537 291.437 291.121 291.815 290.567 292.093C290.012 292.37 289.345 292.509 288.567 292.509C287.436 292.509 286.508 292.215 285.783 291.629C285.057 291.031 284.652 290.189 284.567 289.101H285.975C286.049 289.741 286.311 290.263 286.759 290.669C287.207 291.074 287.804 291.277 288.551 291.277C289.297 291.277 289.863 291.085 290.247 290.701C290.641 290.306 290.839 289.799 290.839 289.181C290.839 288.381 290.572 287.805 290.039 287.453C289.505 287.101 288.7 286.925 287.623 286.925H287.255V285.709H287.639C288.62 285.698 289.361 285.538 289.863 285.229C290.364 284.909 290.615 284.418 290.615 283.757C290.615 283.191 290.428 282.738 290.055 282.397C289.692 282.055 289.169 281.885 288.487 281.885C287.825 281.885 287.292 282.055 286.887 282.397C286.481 282.738 286.241 283.197 286.167 283.773H284.743ZM293.877 286.525C293.877 284.69 294.175 283.261 294.773 282.237C295.37 281.202 296.415 280.685 297.909 280.685C299.391 280.685 300.431 281.202 301.029 282.237C301.626 283.261 301.925 284.69 301.925 286.525C301.925 288.391 301.626 289.842 301.029 290.877C300.431 291.911 299.391 292.429 297.909 292.429C296.415 292.429 295.37 291.911 294.773 290.877C294.175 289.842 293.877 288.391 293.877 286.525ZM300.485 286.525C300.485 285.597 300.421 284.813 300.293 284.173C300.175 283.522 299.925 282.999 299.541 282.605C299.167 282.21 298.623 282.013 297.909 282.013C297.183 282.013 296.629 282.21 296.245 282.605C295.871 282.999 295.621 283.522 295.493 284.173C295.375 284.813 295.317 285.597 295.317 286.525C295.317 287.485 295.375 288.29 295.493 288.941C295.621 289.591 295.871 290.114 296.245 290.509C296.629 290.903 297.183 291.101 297.909 291.101C298.623 291.101 299.167 290.903 299.541 290.509C299.925 290.114 300.175 289.591 300.293 288.941C300.421 288.29 300.485 287.485 300.485 286.525Z" fill="#000F4D"/>
<path d="M333.632 283.773C333.707 282.791 334.085 282.023 334.768 281.469C335.451 280.914 336.336 280.637 337.424 280.637C338.149 280.637 338.773 280.77 339.296 281.037C339.829 281.293 340.229 281.645 340.496 282.093C340.773 282.541 340.912 283.047 340.912 283.613C340.912 284.274 340.72 284.845 340.336 285.325C339.963 285.805 339.472 286.114 338.864 286.253V286.333C339.557 286.503 340.107 286.839 340.512 287.341C340.917 287.842 341.12 288.498 341.12 289.309C341.12 289.917 340.981 290.466 340.704 290.957C340.427 291.437 340.011 291.815 339.456 292.093C338.901 292.37 338.235 292.509 337.456 292.509C336.325 292.509 335.397 292.215 334.672 291.629C333.947 291.031 333.541 290.189 333.456 289.101H334.864C334.939 289.741 335.2 290.263 335.648 290.669C336.096 291.074 336.693 291.277 337.44 291.277C338.187 291.277 338.752 291.085 339.136 290.701C339.531 290.306 339.728 289.799 339.728 289.181C339.728 288.381 339.461 287.805 338.928 287.453C338.395 287.101 337.589 286.925 336.512 286.925H336.144V285.709H336.528C337.509 285.698 338.251 285.538 338.752 285.229C339.253 284.909 339.504 284.418 339.504 283.757C339.504 283.191 339.317 282.738 338.944 282.397C338.581 282.055 338.059 281.885 337.376 281.885C336.715 281.885 336.181 282.055 335.776 282.397C335.371 282.738 335.131 283.197 335.056 283.773H333.632ZM342.382 282.189V280.861H345.39V292.429H343.918V282.189H342.382Z" fill="black"/>
<path d="M60.7958 330.714H62.2678V319.146H59.2598V320.474H60.7958V330.714Z" fill="#808080"/>
<path d="M103.857 330.586H111.553V329.37H106.049C108.113 327.69 111.217 325.242 111.217 322.362C111.217 320.218 109.809 318.938 107.633 318.938C105.553 318.938 104.001 320.218 103.905 322.682H105.313C105.377 321.226 106.145 320.186 107.649 320.186C109.217 320.186 109.777 321.146 109.777 322.426C109.777 324.794 106.897 327.098 103.857 329.546V330.586Z" fill="#808080"/>
<path d="M150.321 322.058H151.745C151.889 320.938 152.705 320.17 154.065 320.17C155.457 320.17 156.193 320.938 156.193 322.042C156.193 323.386 155.153 323.978 153.217 323.994H152.833V325.21H153.201C155.281 325.21 156.417 325.834 156.417 327.466C156.417 328.65 155.681 329.562 154.129 329.562C152.593 329.562 151.697 328.618 151.553 327.386H150.145C150.321 329.626 151.953 330.794 154.145 330.794C156.561 330.794 157.809 329.386 157.809 327.594C157.809 325.93 156.897 324.938 155.553 324.618V324.538C156.769 324.266 157.601 323.226 157.601 321.898C157.601 320.234 156.369 318.922 154.113 318.922C151.969 318.922 150.465 320.074 150.321 322.058Z" fill="#808080"/>
<path d="M202.029 330.714H203.469V328.138H205.069V326.874H203.469V319.258H201.725L196.109 327.034V328.138H202.029V330.714ZM197.789 326.874L202.093 320.778V326.874H197.789Z" fill="#808080"/>
<path d="M243.313 319.13V325.658H244.689C245.073 324.746 245.921 324.138 247.089 324.138C248.769 324.138 249.617 325.098 249.617 326.746C249.617 328.33 248.833 329.514 247.073 329.514C245.713 329.514 244.769 328.794 244.497 327.578H243.073C243.361 329.45 244.753 330.746 247.057 330.746C249.761 330.746 251.009 328.954 251.009 326.714C251.009 324.922 250.113 322.89 247.297 322.89C246.161 322.89 245.137 323.402 244.657 324.058V320.41H250.273V319.13H243.313Z" fill="#808080"/>
<path d="M297.063 321.898C296.871 320.282 295.751 318.906 293.543 318.906C290.615 318.906 289.447 321.146 289.447 324.778C289.447 328.282 290.263 330.746 293.687 330.746C296.215 330.746 297.463 329.018 297.463 326.906C297.463 324.474 296.007 323.05 293.847 323.05C292.471 323.05 291.207 323.69 290.711 324.826C290.695 321.386 291.687 320.122 293.527 320.122C294.839 320.122 295.495 320.778 295.719 321.898H297.063ZM293.543 324.282C295.207 324.282 296.055 325.322 296.055 326.954C296.055 328.522 295.111 329.53 293.607 329.53C291.783 329.53 290.887 328.33 290.887 326.794C290.887 325.066 292.215 324.282 293.543 324.282Z" fill="#808080"/>
<path d="M335.946 319.178V320.426H342.122L337.61 330.714H339.082L343.53 320.282V319.178H335.946Z" fill="#808080"/>
<circle cx="247" cy="210" r="12.5" stroke="#0022A8"/>
<circle cx="108" cy="248" r="12.5" fill="#DFE6FF" stroke="#DFE6FF"/>
<path d="M100.809 243.903V242.575H103.817V254.143H102.345V243.903H100.809ZM107.87 251.039C107.977 251.647 108.222 252.116 108.606 252.447C109.001 252.777 109.529 252.943 110.19 252.943C111.076 252.943 111.726 252.596 112.142 251.903C112.569 251.209 112.772 250.041 112.75 248.399C112.526 248.879 112.153 249.257 111.63 249.535C111.108 249.801 110.526 249.935 109.886 249.935C109.172 249.935 108.532 249.791 107.966 249.503C107.412 249.204 106.974 248.772 106.654 248.207C106.334 247.641 106.174 246.959 106.174 246.159C106.174 245.017 106.505 244.1 107.166 243.407C107.828 242.703 108.766 242.351 109.982 242.351C111.476 242.351 112.521 242.836 113.118 243.807C113.726 244.777 114.03 246.223 114.03 248.143C114.03 249.487 113.908 250.596 113.662 251.471C113.428 252.345 113.022 253.012 112.446 253.471C111.881 253.929 111.102 254.159 110.11 254.159C109.022 254.159 108.174 253.865 107.566 253.279C106.958 252.692 106.612 251.945 106.526 251.039H107.87ZM110.126 248.703C110.841 248.703 111.428 248.484 111.886 248.047C112.345 247.599 112.574 246.996 112.574 246.239C112.574 245.439 112.35 244.793 111.902 244.303C111.454 243.812 110.825 243.567 110.014 243.567C109.268 243.567 108.67 243.801 108.222 244.271C107.785 244.74 107.566 245.359 107.566 246.127C107.566 246.905 107.785 247.529 108.222 247.999C108.66 248.468 109.294 248.703 110.126 248.703Z" fill="#000F4D"/>
<defs>
<filter id="filter0_d_13_48" x="0" y="0" width="401" height="375" filterUnits="userSpaceOnUse" color-interpolation-filters="sRGB">
<feFlood flood-opacity="0" result="BackgroundImageFix"/>
<feColorMatrix in="SourceAlpha" type="matrix" values="0 0 0 0 0 0 0 0 0 0 0 0 0 0 0 0 0 0 127 0" result="hardAlpha"/>
<feOffset dy="4"/>
<feGaussianBlur stdDeviation="2"/>
<feComposite in2="hardAlpha" operator="out"/>
<feColorMatrix type="matrix" values="0 0 0 0 0 0 0 0 0 0 0 0 0 0 0 0 0 0 0.25 0"/>
<feBlend mode="normal" in2="BackgroundImageFix" result="effect1_dropShadow_13_48"/>
<feBlend mode="normal" in="SourceGraphic" in2="effect1_dropShadow_13_48" result="shape"/>
</filter>
</defs>
</svg>
