<svg width="30" height="30" viewBox="0 0 30 30" fill="none" xmlns="http://www.w3.org/2000/svg">
<path d="M19.8134 0H4.26587C3.83301 0 3.48212 0.350893 3.48212 1.03179V29.4643C3.48212 29.6491 3.83301 30 4.26587 30H25.7341C26.1669 30 26.5178 29.6491 26.5178 29.4643V6.9525C26.5178 6.57964 26.468 6.45964 26.3802 6.37125L20.1466 0.137679C20.0582 0.0498214 19.9382 0 19.8134 0Z" fill="#E9E9E0"/>
<path d="M20.0892 0.0809021V6.42858H26.4369L20.0892 0.0809021Z" fill="#D9D7CA"/>
<path d="M10.4539 17.8521C10.2675 17.8521 10.0886 17.7916 9.93588 17.6775C9.3782 17.2591 9.3032 16.7936 9.33855 16.4764C9.43605 15.6043 10.5144 14.6914 12.5448 13.7614C13.3505 11.9957 14.1171 9.82018 14.5741 8.0025C14.0394 6.83893 13.5198 5.32929 13.8986 4.44375C14.0314 4.13357 14.1969 3.89571 14.5061 3.79286C14.6282 3.75214 14.9368 3.70071 15.0503 3.70071C15.3203 3.70071 15.5577 4.04839 15.7259 4.26268C15.8839 4.46411 16.2423 4.89107 15.5261 7.90661C16.2482 9.39804 17.2714 10.9173 18.2518 11.9577C18.9541 11.8307 19.5584 11.7659 20.0507 11.7659C20.8896 11.7659 21.398 11.9614 21.6053 12.3643C21.7768 12.6975 21.7066 13.087 21.3964 13.5214C21.098 13.9388 20.6866 14.1595 20.2071 14.1595C19.5557 14.1595 18.7971 13.748 17.9512 12.9354C16.4314 13.253 14.6566 13.8198 13.2219 14.4471C12.7741 15.3975 12.345 16.163 11.9453 16.7245C11.3962 17.4932 10.9227 17.8521 10.4539 17.8521ZM11.88 15.1061C10.7352 15.7495 10.2686 16.2782 10.2348 16.5761C10.2294 16.6254 10.215 16.755 10.4657 16.9468C10.5455 16.9216 11.0116 16.7089 11.88 15.1061ZM19.1855 12.7264C19.6221 13.0623 19.7287 13.2321 20.0143 13.2321C20.1396 13.2321 20.4969 13.2268 20.6625 12.9959C20.7423 12.8839 20.7734 12.8121 20.7857 12.7736C20.7198 12.7388 20.6325 12.668 20.1562 12.668C19.8857 12.6686 19.5455 12.6804 19.1855 12.7264ZM15.1837 9.20036C14.8007 10.5257 14.295 11.9566 13.7512 13.2525C14.8709 12.818 16.088 12.4388 17.2312 12.1704C16.508 11.3304 15.7853 10.2814 15.1837 9.20036ZM14.8586 4.66714C14.8061 4.68482 14.1461 5.60839 14.91 6.39C15.4184 5.25696 14.8816 4.65964 14.8586 4.66714Z" fill="#CC4B4C"/>
<path d="M25.7341 30H4.26587C3.83301 30 3.48212 29.6491 3.48212 29.2162V20.8929H26.5178V29.2162C26.5178 29.6491 26.1669 30 25.7341 30Z" fill="#CC4B4C"/>
<path d="M9.31337 28.3929H8.43427V22.995H9.98677C10.2161 22.995 10.4432 23.0314 10.6677 23.1048C10.8921 23.1782 11.0936 23.288 11.2719 23.4343C11.4503 23.5805 11.5944 23.7579 11.7043 23.9652C11.8141 24.1725 11.8693 24.4055 11.8693 24.6648C11.8693 24.9386 11.8227 25.1861 11.73 25.4084C11.6373 25.6307 11.5077 25.8177 11.3416 25.9687C11.1755 26.1198 10.9752 26.2371 10.7411 26.3202C10.5069 26.4032 10.2477 26.4445 9.9648 26.4445H9.31284L9.31337 28.3929ZM9.31337 23.6614V25.8H10.1191C10.2262 25.8 10.3323 25.7818 10.4378 25.7448C10.5428 25.7084 10.6393 25.6484 10.7271 25.5654C10.815 25.4823 10.8857 25.3666 10.9393 25.2177C10.9928 25.0687 11.0196 24.8845 11.0196 24.6648C11.0196 24.577 11.0073 24.4752 10.9832 24.3611C10.9586 24.2464 10.9087 24.1366 10.8332 24.0316C10.7571 23.9266 10.6511 23.8387 10.5144 23.768C10.3778 23.6973 10.1968 23.662 9.9723 23.662L9.31337 23.6614Z" fill="white"/>
<path d="M17.2601 25.5439C17.2601 25.988 17.2125 26.3679 17.1171 26.6829C17.0217 26.9979 16.9012 27.2614 16.7544 27.4741C16.6076 27.6868 16.4432 27.8539 16.26 27.9761C16.0767 28.0982 15.9 28.1893 15.7291 28.2509C15.5582 28.312 15.4017 28.3511 15.2603 28.3682C15.1189 28.3843 15.0139 28.3929 14.9453 28.3929H12.9021V22.995H14.528C14.9823 22.995 15.3814 23.0673 15.7253 23.2109C16.0692 23.3545 16.3553 23.5468 16.5825 23.7857C16.8096 24.0246 16.9789 24.2973 17.0914 24.6021C17.2039 24.9075 17.2601 25.2214 17.2601 25.5439ZM14.6528 27.7484C15.2485 27.7484 15.6782 27.5582 15.9417 27.1773C16.2053 26.7964 16.3371 26.2446 16.3371 25.522C16.3371 25.2975 16.3103 25.0752 16.2567 24.8555C16.2026 24.6359 16.0992 24.4371 15.9455 24.2587C15.7917 24.0804 15.5828 23.9362 15.3192 23.8264C15.0557 23.7166 14.7139 23.6614 14.2939 23.6614H13.7812V27.7484H14.6528Z" fill="white"/>
<path d="M19.4282 23.6614V25.3607H21.6841V25.9612H19.4282V28.3929H18.5346V22.995H21.9107V23.6614H19.4282Z" fill="white"/>
</svg>
