<svg width="40" height="40" viewBox="0 0 40 40" fill="none" xmlns="http://www.w3.org/2000/svg">
<path d="M20.2001 21.3C20.0672 21.2833 19.9329 21.2833 19.8001 21.3C18.3866 21.2524 17.0471 20.6573 16.0643 19.6403C15.0815 18.6233 14.5326 17.2642 14.5334 15.85C14.5334 12.8333 16.9667 10.3833 20.0001 10.3833C21.4325 10.3808 22.8085 10.9413 23.8314 11.944C24.8544 12.9466 25.4424 14.3111 25.4686 15.7433C25.4949 17.1754 24.9572 18.5606 23.9717 19.6C22.9861 20.6395 21.6316 21.25 20.2001 21.3ZM31.2334 32.3C28.1705 35.1151 24.1601 36.674 20.0001 36.6666C15.6667 36.6666 11.7334 35.0166 8.76672 32.3C8.93339 30.7333 9.93339 29.2 11.7167 28C16.2834 24.9666 23.7501 24.9666 28.2834 28C30.0667 29.2 31.0667 30.7333 31.2334 32.3Z" stroke="white" stroke-width="1.5" stroke-linecap="round" stroke-linejoin="round"/>
<path d="M20 36.6667C29.205 36.6667 36.6667 29.205 36.6667 20C36.6667 10.795 29.205 3.33337 20 3.33337C10.795 3.33337 3.33337 10.795 3.33337 20C3.33337 29.205 10.795 36.6667 20 36.6667Z" stroke="white" stroke-width="1.5" stroke-linecap="round" stroke-linejoin="round"/>
</svg>
